<svg xmlns="http://www.w3.org/2000/svg" xmlns:xlink="http://www.w3.org/1999/xlink" viewBox="0 0 82.64 17.54"><defs><style>.cls-1{fill:url(#Безымянный_градиент_14);}.cls-2{font-size:12.99px;font-family:AvenirNext-Heavy, Avenir Next;font-weight:800;}.cls-3{letter-spacing:-0.03em;}.cls-4{letter-spacing:-0.04em;}.cls-5{letter-spacing:-0.06em;}.cls-6{letter-spacing:0.05em;}.cls-7{letter-spacing:-0.01em;}.cls-8{fill:url(#Безымянный_градиент_7);}</style><linearGradient id="Безымянный_градиент_14" y1="8.77" x2="16.93" y2="8.77" gradientUnits="userSpaceOnUse"><stop offset="0" stop-color="#4329b9"/><stop offset="0.24" stop-color="#512fbc"/><stop offset="0.7" stop-color="#6639c2"/><stop offset="1" stop-color="#6e3cc4"/></linearGradient><linearGradient id="Безымянный_градиент_7" x1="18.44" y1="8.99" x2="82.64" y2="8.99" gradientUnits="userSpaceOnUse"><stop offset="0" stop-color="#4429b9"/><stop offset="1" stop-color="#6a3ac3"/></linearGradient></defs><g id="Слой_2" data-name="Слой 2"><g id="Слой_1-2" data-name="Слой 1"><path class="cls-1" d="M16.61,4.05,8.67.05a.51.51,0,0,0-.45,0L5.4,1.48l8,4V9.76a.25.25,0,0,1-.13.22l-1.44.78a.25.25,0,0,1-.33-.11.17.17,0,0,1,0-.1v-4l-8-4.09L.27,4.06A.5.5,0,0,0,0,4.51v8.73a.5.5,0,0,0,.28.45l7.94,3.8a.49.49,0,0,0,.44,0l7.94-3.8a.49.49,0,0,0,.33-.45V4.5A.51.51,0,0,0,16.61,4.05Z"/><text class="cls-2" transform="translate(17.58 13.59)">B<tspan class="cls-3" x="9" y="0">L</tspan><tspan class="cls-4" x="15.75" y="0">O</tspan><tspan x="26.38" y="0">X</tspan><tspan class="cls-5" x="36.78" y="0">T</tspan><tspan class="cls-6" x="43.79" y="0">A</tspan><tspan class="cls-7" x="54.51" y="0">X</tspan></text><path class="cls-8" d="M24.45,8.81a2.65,2.65,0,0,1,.64.25,2.41,2.41,0,0,1,.56.45,2.12,2.12,0,0,1,.39.61,2.21,2.21,0,0,1,.14.78,2.49,2.49,0,0,1-.3,1.27,2.57,2.57,0,0,1-.81.83,3.4,3.4,0,0,1-1.14.45,5.8,5.8,0,0,1-1.32.14H18.44V4.39h3.78a8.47,8.47,0,0,1,1.19.09,3.71,3.71,0,0,1,1.16.34,2.16,2.16,0,0,1,.88.74,2.09,2.09,0,0,1,.35,1.28,1.93,1.93,0,0,1-.37,1.22,2.1,2.1,0,0,1-1,.71Zm-3.13-2V7.93h.83a.91.91,0,0,0,.54-.15.56.56,0,0,0,.2-.46.41.41,0,0,0-.22-.39,1.08,1.08,0,0,0-.58-.13Zm0,3.12v1.24h.92a1,1,0,0,0,.6-.16.55.55,0,0,0,.22-.48.44.44,0,0,0-.09-.29.88.88,0,0,0-.24-.19,1.12,1.12,0,0,0-.31-.1,1.67,1.67,0,0,0-.31,0Z"/><path class="cls-8" d="M27.44,4.39h3.12v6.54h3.05v2.66H27.44Z"/><path class="cls-8" d="M33.77,8.94a4.87,4.87,0,0,1,.39-2,4.36,4.36,0,0,1,1.07-1.52,4.84,4.84,0,0,1,1.62-1,6.2,6.2,0,0,1,4,0,5,5,0,0,1,1.62,1A4.39,4.39,0,0,1,43.6,7a4.87,4.87,0,0,1,.39,2,5,5,0,0,1-.39,2,4.55,4.55,0,0,1-1.08,1.56,4.78,4.78,0,0,1-1.62,1,6,6,0,0,1-4,0,4.59,4.59,0,0,1-1.62-1A4.52,4.52,0,0,1,34.16,11,5,5,0,0,1,33.77,8.94Zm3.28,0a2.45,2.45,0,0,0,.14.83,2,2,0,0,0,.38.65,1.63,1.63,0,0,0,.58.42,1.8,1.8,0,0,0,1.44,0,1.63,1.63,0,0,0,.58-.42,2,2,0,0,0,.39-.65,2.45,2.45,0,0,0,.13-.83,2.37,2.37,0,0,0-.13-.81,1.82,1.82,0,0,0-.39-.63,1.69,1.69,0,0,0-.58-.39,1.92,1.92,0,0,0-1.44,0,1.69,1.69,0,0,0-.58.39,1.8,1.8,0,0,0-.38.63A2.38,2.38,0,0,0,37.05,8.94Z"/><path class="cls-8" d="M49.07,10.9l-1.6,2.69H43.81L47.1,8.8,44,4.39h3.73l1.45,2.42,1.39-2.42h3.64L51.12,8.76l3.39,4.83H50.73Z"/><path class="cls-8" d="M59.8,13.59H56.71V7H54.45V4.39h7.61V7H59.8Z"/><path class="cls-8" d="M64.79,4.39h3.29l3.58,9.2H68.3l-.48-1.35H64.89l-.45,1.35H61.17Zm1.6,3.21-.76,2.28h1.5Z"/><path class="cls-8" d="M77.2,10.9l-1.6,2.69H71.93L75.22,8.8,72.1,4.39h3.73l1.46,2.42,1.39-2.42h3.63L79.25,8.76l3.39,4.83H78.86Z"/></g></g></svg>