<?xml version="1.0" encoding="utf-8"?>
<!-- Generator: Adobe Illustrator 27.4.1, SVG Export Plug-In . SVG Version: 6.00 Build 0)  -->
<svg version="1.1" id="Слой_1" xmlns="http://www.w3.org/2000/svg" xmlns:xlink="http://www.w3.org/1999/xlink" x="0px" y="0px"
	 viewBox="0 0 82.6 17.5" style="enable-background:new 0 0 82.6 17.5;" xml:space="preserve">
<style type="text/css">
	.st0{fill:#FFFFFF;}
	.st1{font-family:'AvenirNext-Bold';}
	.st2{font-size:12.99px;}
</style>
<g id="Слой_2_00000014610214132482311280000015010454511687454118_">
	<g id="Слой_1-2">
		<path class="st0" d="M16.6,4.1l-7.9-4C8.5,0,8.4,0,8.2,0.1L5.4,1.5l8,4v4.3c0,0.1,0,0.2-0.1,0.2l-1.4,0.8c-0.1,0.1-0.3,0-0.3-0.1
			c0,0,0-0.1,0-0.1v-4l-8-4.1L0.3,4.1C0.1,4.1,0,4.3,0,4.5v8.7c0,0.2,0.1,0.4,0.3,0.4l7.9,3.8c0.1,0.1,0.3,0.1,0.4,0l7.9-3.8
			c0.2-0.1,0.3-0.2,0.3-0.4V4.5C16.9,4.3,16.8,4.1,16.6,4.1z"/>
		<text transform="matrix(1 0 0 1 17.58 13.59)" class="st0 st1 st2" text-rendering="geometricPrecision">B</text>
		<text transform="matrix(1 0 0 1 26.58 13.59)" class="st0 st1 st2" text-rendering="geometricPrecision">L</text>
		<text transform="matrix(1 0 0 1 33.33 13.59)" class="st0 st1 st2" text-rendering="geometricPrecision">O</text>
		<text transform="matrix(1 0 0 1 43.96 13.59)" class="st0 st1 st2" text-rendering="geometricPrecision">X</text>
		<text transform="matrix(1 0 0 1 54.36 13.59)" class="st0 st1 st2" text-rendering="geometricPrecision">T</text>
		<text transform="matrix(1 0 0 1 61.37 13.59)" class="st0 st1 st2" text-rendering="geometricPrecision">A</text>
		<text transform="matrix(1 0 0 1 72.09 13.59)" class="st0 st1 st2" text-rendering="geometricPrecision">X</text>
		<path class="st0" d="M24.5,8.8c0.2,0.1,0.4,0.1,0.6,0.2c0.2,0.1,0.4,0.3,0.6,0.4c0.2,0.2,0.3,0.4,0.4,0.6c0.1,0.2,0.1,0.5,0.1,0.8
			c0,0.4-0.1,0.9-0.3,1.3c-0.2,0.3-0.5,0.6-0.8,0.8c-0.3,0.2-0.7,0.4-1.1,0.4c-0.4,0.1-0.9,0.1-1.3,0.1h-4.2V4.4h3.8
			c0.4,0,0.8,0,1.2,0.1c0.4,0,0.8,0.2,1.2,0.3c0.4,0.2,0.7,0.4,0.9,0.7c0.3,0.4,0.4,0.8,0.4,1.3c0,0.4-0.1,0.9-0.4,1.2
			C25.2,8.4,24.8,8.6,24.5,8.8L24.5,8.8z M21.3,6.8v1.1h0.8c0.2,0,0.4,0,0.5-0.2c0.1-0.1,0.2-0.3,0.2-0.5c0-0.2-0.1-0.3-0.2-0.4
			c-0.2-0.1-0.4-0.1-0.6-0.1L21.3,6.8z M21.3,9.9v1.2h0.9c0.2,0,0.4,0,0.6-0.2c0.2-0.1,0.2-0.3,0.2-0.5c0-0.1,0-0.2-0.1-0.3
			c-0.1-0.1-0.1-0.1-0.2-0.2c-0.1,0-0.2-0.1-0.3-0.1c-0.1,0-0.2,0-0.3,0L21.3,9.9z"/>
		<path class="st0" d="M27.4,4.4h3.1v6.5h3v2.7h-6.2V4.4z"/>
		<path class="st0" d="M33.8,8.9c0-0.7,0.1-1.4,0.4-2c0.2-0.6,0.6-1.1,1.1-1.5c0.5-0.4,1-0.8,1.6-1c1.3-0.4,2.7-0.4,4,0
			c0.6,0.2,1.1,0.6,1.6,1c0.5,0.4,0.9,1,1.1,1.6C43.9,7.6,44,8.3,44,9c0,0.7-0.1,1.4-0.4,2c-0.2,0.6-0.6,1.1-1.1,1.6
			c-0.5,0.4-1,0.8-1.6,1c-1.3,0.5-2.7,0.5-4,0c-0.6-0.2-1.2-0.6-1.6-1c-0.5-0.4-0.9-1-1.1-1.6C33.9,10.3,33.8,9.6,33.8,8.9z M37,8.9
			c0,0.3,0,0.6,0.1,0.8c0.1,0.2,0.2,0.5,0.4,0.6c0.2,0.2,0.4,0.3,0.6,0.4c0.5,0.2,1,0.2,1.4,0c0.2-0.1,0.4-0.2,0.6-0.4
			c0.2-0.2,0.3-0.4,0.4-0.6c0.1-0.3,0.1-0.5,0.1-0.8c0-0.3,0-0.5-0.1-0.8c-0.1-0.2-0.2-0.4-0.4-0.6c-0.2-0.2-0.4-0.3-0.6-0.4
			c-0.5-0.2-1-0.2-1.4,0c-0.2,0.1-0.4,0.2-0.6,0.4c-0.2,0.2-0.3,0.4-0.4,0.6C37.1,8.4,37,8.7,37,8.9z"/>
		<path class="st0" d="M49.1,10.9l-1.6,2.7h-3.7l3.3-4.8L44,4.4h3.7l1.5,2.4l1.4-2.4h3.6l-3.1,4.4l3.4,4.8h-3.8L49.1,10.9z"/>
		<path class="st0" d="M59.8,13.6h-3.1V7h-2.3V4.4h7.6V7h-2.3V13.6z"/>
		<path class="st0" d="M64.8,4.4h3.3l3.6,9.2h-3.4l-0.5-1.4h-2.9l-0.4,1.4h-3.3L64.8,4.4z M66.4,7.6l-0.8,2.3h1.5L66.4,7.6z"/>
		<path class="st0" d="M77.2,10.9l-1.6,2.7h-3.7l3.3-4.8l-3.1-4.4h3.7l1.5,2.4l1.4-2.4h3.6l-3.1,4.4l3.4,4.8h-3.8L77.2,10.9z"/>
	</g>
</g>
</svg>
