<svg width="592" height="274" viewBox="0 0 592 274" fill="none" xmlns="http://www.w3.org/2000/svg">
<g opacity="0.7">
<rect width="592" height="6" transform="translate(0 268)" fill="url(#paint0_linear_1951_16500)"/>
</g>
<g opacity="0.53">
<path d="M97 94.0175C97 72.5145 116.821 55.0806 141.272 55.0806H150.507C146.187 51.7922 143.451 46.9384 143.451 41.5191C143.451 31.6148 152.581 23.5853 163.843 23.5853H194.578C191.471 21.2311 189.494 17.7542 189.494 13.8634C189.494 6.7763 196.028 1.03125 204.084 1.03125H281.262C289.32 1.03125 295.854 6.7763 295.854 13.8634C295.854 20.9504 289.32 26.6955 281.262 26.6955H252.364C246.985 29.9245 243.45 35.3581 243.45 41.5191C243.45 46.9384 246.186 51.7922 250.506 55.0806H298.032C322.484 55.0806 342.304 72.5125 342.304 94.0175C342.304 115.52 322.484 132.954 298.032 132.954H360.993C372.255 132.954 381.386 140.984 381.386 150.888C381.386 160.792 372.255 168.822 360.993 168.822H386.647C414.676 168.822 437.942 186.694 442.562 210.183H451.545C469.02 210.183 483.188 222.642 483.188 238.013V240.832C483.188 256.202 469.02 268.662 451.545 268.662H153.761C122.414 268.662 97 246.313 97 218.741C97 191.171 122.414 168.82 153.761 168.82H253.131C241.869 168.82 232.739 160.79 232.739 150.886C232.739 140.982 241.869 132.952 253.131 132.952H141.272C116.821 132.952 97 115.52 97 94.0154V94.0175Z" fill="#F4EBFF"/>
<path d="M345.895 27.7254C354.251 27.7254 361.025 21.5189 361.025 13.8627C361.025 6.20654 354.251 0 345.895 0C337.539 0 330.765 6.20654 330.765 13.8627C330.765 21.5189 337.539 27.7254 345.895 27.7254Z" fill="#F4EBFF"/>
</g>
<path d="M261.117 202.453C261.117 202.453 265.887 215.502 253.631 248.731H333.31C333.31 248.731 319.013 235.682 322.418 202.453H261.129H261.117Z" fill="#B8B4DA"/>
<path d="M321.962 215.46C321.824 211.517 321.939 207.192 322.421 202.453H261.131C261.131 202.453 262.564 206.406 261.83 215.46H321.962Z" fill="#8C80BC"/>
<path d="M152.902 36.8984H428.602C435.928 36.8984 441.867 42.4135 441.867 49.1931V193.233C441.867 201.001 435.057 207.313 426.676 207.313H154.817C146.436 207.313 139.626 201.001 139.626 193.233V49.1931C139.626 42.4029 145.576 36.8984 152.891 36.8984H152.902Z" fill="#B8B4DA"/>
<path d="M141.597 199.05V43.8293C141.597 40.7435 144.477 38.2519 148.035 38.2519H432.883C433.99 38.2519 435.018 38.5125 435.933 38.9399C434.848 37.1989 432.737 36 430.297 36H145.437C141.88 36 139 38.5021 139 41.5775V196.788C139 199.134 140.457 201.177 142.625 202.282C141.97 201.334 141.597 200.218 141.597 199.03V199.05Z" fill="#8C80BC"/>
<path d="M428.222 46.8389H153.278C152.885 46.8389 152.567 47.1338 152.567 47.4977V184.79C152.567 185.154 152.885 185.449 153.278 185.449H428.222C428.614 185.449 428.933 185.154 428.933 184.79V47.4977C428.933 47.1338 428.614 46.8389 428.222 46.8389Z" fill="#433D66"/>
<path d="M428.137 56.6416H153.148C152.768 56.6416 152.46 56.9271 152.46 57.2792V184.806C152.46 185.158 152.768 185.444 153.148 185.444H428.137C428.517 185.444 428.825 185.158 428.825 184.806V57.2792C428.825 56.9271 428.517 56.6416 428.137 56.6416Z" fill="#4B4578"/>
<path d="M213.111 247.185L206.645 267.608H371.437L364.971 247.185H213.111Z" fill="#6C6B95"/>
<path d="M299.25 196.02C299.25 199.017 296.67 201.439 293.483 201.439C290.296 201.439 287.716 199.017 287.716 196.02C287.716 193.023 290.296 190.601 293.483 190.601C296.67 190.601 299.25 193.023 299.25 196.02Z" fill="#8C80BC"/>
<path d="M333.576 93.5261L292.375 71.9892C291.331 71.4515 290.81 71.4515 289.767 71.9892L275.164 79.527L316.888 101.064V124.215C316.888 124.753 316.888 125.292 316.366 125.292L309.064 129.598C308.542 130.137 307.499 129.598 307.499 129.061V128.522V106.986L265.776 84.9116L248.565 93.5261C247.522 93.5261 247.001 94.6027 247.001 95.6794V142.521C247.001 143.597 247.522 144.674 248.565 144.674L289.767 165.133C290.288 165.672 291.331 165.672 291.853 165.133L333.055 144.674C334.099 144.135 334.62 143.597 334.62 142.521V95.6794C335.142 94.6027 334.62 93.5261 333.576 93.5261Z" fill="url(#paint1_linear_1951_16500)"/>
<path d="M258.128 163.93C258.397 164.067 258.665 164.067 258.934 164.203C259.203 164.339 259.472 164.612 259.74 164.748C260.009 165.021 260.144 165.294 260.278 165.567C260.412 165.839 260.412 166.248 260.412 166.657C260.412 167.203 260.278 167.885 260.009 168.43C259.74 168.839 259.337 169.249 258.934 169.521C258.531 169.794 257.993 170.067 257.456 170.067C256.918 170.203 256.246 170.203 255.709 170.203H250.064V157.93H255.171C255.709 157.93 256.246 157.93 256.784 158.066C257.321 158.066 257.859 158.339 258.397 158.475C258.934 158.748 259.337 159.021 259.606 159.43C260.009 159.975 260.144 160.521 260.144 161.203C260.144 161.748 260.009 162.43 259.606 162.839C259.068 163.385 258.531 163.657 258.128 163.93ZM253.827 161.203V162.703H254.902C255.171 162.703 255.44 162.703 255.574 162.43C255.709 162.294 255.843 162.021 255.843 161.748C255.843 161.475 255.709 161.339 255.574 161.203C255.306 161.066 255.036 161.066 254.768 161.066L253.827 161.203ZM253.827 165.43V167.067H255.036C255.306 167.067 255.574 167.067 255.843 166.794C256.112 166.657 256.112 166.385 256.112 166.112C256.112 165.976 256.112 165.839 255.977 165.703C255.843 165.567 255.843 165.567 255.709 165.43C255.574 165.43 255.44 165.294 255.306 165.294C255.171 165.294 255.036 165.294 254.902 165.294L253.827 165.43Z" fill="url(#paint2_linear_1951_16500)"/>
<path d="M261.088 157.93H265.173V166.601H269.126V170.203H260.956V157.93H261.088Z" fill="url(#paint3_linear_1951_16500)"/>
<path d="M269.671 163.876C269.671 162.926 269.799 161.977 270.183 161.164C270.44 160.35 270.952 159.672 271.593 159.13C272.234 158.588 272.875 158.045 273.644 157.774C275.31 157.232 277.104 157.232 278.77 157.774C279.539 158.045 280.18 158.588 280.82 159.13C281.461 159.672 281.974 160.486 282.23 161.299C282.614 162.113 282.742 163.062 282.742 164.011C282.742 164.96 282.614 165.909 282.23 166.723C281.974 167.536 281.461 168.214 280.82 168.892C280.18 169.434 279.539 169.977 278.77 170.248C277.104 170.926 275.31 170.926 273.644 170.248C272.875 169.977 272.106 169.434 271.593 168.892C270.952 168.35 270.44 167.536 270.183 166.723C269.799 165.773 269.671 164.824 269.671 163.876ZM273.772 163.876C273.772 164.282 273.772 164.689 273.9 164.96C274.028 165.231 274.156 165.638 274.413 165.773C274.669 166.045 274.925 166.18 275.181 166.316C275.822 166.587 276.463 166.587 276.975 166.316C277.232 166.18 277.488 166.045 277.745 165.773C278.001 165.502 278.129 165.231 278.257 164.96C278.385 164.553 278.385 164.282 278.385 163.876C278.385 163.469 278.385 163.198 278.257 162.791C278.129 162.52 278.001 162.248 277.745 161.977C277.488 161.706 277.232 161.57 276.975 161.435C276.335 161.164 275.694 161.164 275.181 161.435C274.925 161.57 274.669 161.706 274.413 161.977C274.156 162.248 274.028 162.52 273.9 162.791C273.9 163.198 273.772 163.604 273.772 163.876Z" fill="url(#paint4_linear_1951_16500)"/>
<path d="M289.214 166.601L287.096 170.203H282.199L286.567 163.8L282.464 157.93H287.361L289.346 161.132L291.199 157.93H295.964L291.861 163.8L296.361 170.203H291.331L289.214 166.601Z" fill="url(#paint5_linear_1951_16500)"/>
<path d="M302.78 170.203H298.781V161.398H295.814V157.93H305.618V161.398H302.651V170.203H302.78Z" fill="url(#paint6_linear_1951_16500)"/>
<path d="M309.012 157.93H313.12L317.602 170.203H313.369L312.746 168.336H309.136L308.638 170.203H304.53L309.012 157.93ZM311.004 162.199L310.008 165.267H311.875L311.004 162.199Z" fill="url(#paint7_linear_1951_16500)"/>
<path d="M324.889 166.601L322.853 170.203H318.144L322.344 163.8L318.399 157.93H323.107L325.016 161.132L326.798 157.93H331.379L327.434 163.8L331.761 170.203H326.925L324.889 166.601Z" fill="url(#paint8_linear_1951_16500)"/>
<path d="M390.303 166.661C390.303 166.661 389.387 165.601 389.593 164.953C389.778 164.376 389.706 164.572 389.799 164.335C389.83 164.253 389.881 164.078 389.881 164.078C389.881 164.078 390.396 162.493 389.964 162.143C389.531 161.793 389.099 162.03 388.996 162.905C388.893 163.78 387.38 163.841 387.144 162.431C386.907 161.021 386.125 159.488 385.662 159.889C385.198 160.291 385.62 161.433 385.62 161.433C385.62 161.433 385.559 161.454 385.466 161.155C385.373 160.857 385.497 160.064 385.281 160.167C385.065 160.27 383.613 160.815 383.706 162.74C383.799 164.654 384.993 165.447 385.425 165.817C385.857 166.198 387.03 167.804 387.051 168.442C387.051 168.442 390.447 167.732 390.293 166.661H390.303Z" fill="#FDCA96"/>
<path d="M390.024 165.413L390.528 166.761L386.73 169.098L386.113 167.471C387.091 166.288 390.024 165.413 390.024 165.413Z" fill="white"/>
<path d="M399.87 165.357C397.935 167.827 395.393 175.031 395.393 175.031C395.393 175.031 394.693 173.333 394.436 174.712L390.37 165.737C390.37 165.737 386.696 167.425 386.099 168.454C386.099 168.454 390.638 183.182 393.18 184.386C395.732 185.58 399.993 180.445 399.993 180.445L401.99 166.448C402.175 165.285 400.014 165.171 399.87 165.357Z" fill="#FAA51A"/>
<path d="M398.333 171.051C398.22 169.363 400.001 166.265 401.534 165.668C401.74 165.833 401.864 166.069 401.822 166.388L400.279 180.283C400.279 180.283 398.416 182.753 396.471 183.926C397.325 180.674 398.591 174.787 398.333 171.051Z" fill="#745EA9"/>
<path d="M408.118 259.134L408.468 262.634C408.468 262.634 405.051 264.095 404.444 263.395C403.836 262.706 403.414 262.881 403.414 262.881L403.126 258.455L408.118 259.124V259.134Z" fill="#36294B"/>
<path d="M423.021 258.059L422.805 261.415L418.359 261.188L417.824 257.452L423.021 258.059Z" fill="#36294B"/>
<path d="M421.83 201.474C421.83 201.474 422.077 210.254 421.573 215.286C421.058 220.319 420.111 232.896 420.873 236.632C421.573 240.069 423.703 255.127 424.105 259.49C424.146 259.974 423.744 260.386 423.24 260.396C421.274 260.396 418.135 260.725 417.6 259.768C416.91 258.533 411.795 239.411 411.034 235.664C410.272 231.918 408.872 228.831 408.872 228.831C408.872 228.831 408.358 233.863 408.471 237.62L409.099 259.789C409.119 260.334 408.636 260.767 408.07 260.715C406.279 260.55 404.097 260.52 402.646 260.108C402.646 260.108 400.309 245.37 399.455 238.495C398.601 231.62 397.284 206.6 399.085 203.708C400.886 200.826 421.83 201.485 421.83 201.485V201.474Z" fill="#524162"/>
<path d="M424.104 259.479C424.146 259.963 423.755 260.375 423.24 260.385C422.818 260.385 422.262 260.385 421.665 260.365C420.657 253.325 417.085 233.225 416.396 228.912C415.799 225.176 417.59 209.244 418.536 201.412C420.523 201.433 421.83 201.474 421.83 201.474C421.83 201.474 422.077 210.253 421.573 215.286C421.058 220.318 420.111 232.895 420.873 236.631C421.573 240.069 423.703 255.126 424.104 259.49V259.479Z" fill="#403050"/>
<path d="M406.843 214.76C407.564 217.25 409.179 229.539 409.179 229.539C408.994 229.086 408.881 228.819 408.881 228.819C408.881 228.819 408.366 233.851 408.48 237.608L409.107 259.777C409.128 260.322 408.644 260.755 408.078 260.703C406.586 260.569 404.877 260.477 403.169 260.137C404.394 259.89 406.277 259.036 406.761 258.038C407.378 256.761 405.413 233.615 405.413 233.615C406.596 229.189 406.843 214.76 406.843 214.76Z" fill="#403050"/>
<path d="M423.542 261.566C423.542 261.566 418.674 259.919 417.491 260.547C417.491 260.547 417.522 261.731 416.935 262.348C416.348 262.955 412.839 266.619 413.456 267.196C414.074 267.772 420.115 268.194 423.687 266.907L423.532 261.566H423.542Z" fill="#3C2B49"/>
<path d="M408.51 261.881C408.716 261.86 408.901 262.015 408.901 262.22L409.024 266.708C409.024 266.708 409.58 267.233 406.318 267.325C403.045 267.418 394.327 267.665 393.772 267.14C393.216 266.615 393.741 266.059 396.437 264.896C399.134 263.733 402.077 261.757 403.127 260.646C403.127 260.646 405.309 260.584 404.805 262.22C404.805 262.22 405.309 262.21 408.5 261.871L408.51 261.881Z" fill="#3C2B49"/>
<path d="M414.331 160.599L413.539 157.408L406.643 157.449L406.149 161.515C406.149 161.515 409.628 166.568 414.331 160.599Z" fill="#F4AA6E"/>
<path d="M402.961 148.532C402.961 148.532 403.012 151.918 403.136 153.729C403.259 155.541 403.496 159.678 407.15 160.028C410.803 160.378 412.749 158.464 414.025 157.599C414.025 157.599 418.1 153.513 417.421 152.35C416.732 151.187 415.877 147.616 412.265 147.863C408.652 148.11 402.961 148.532 402.961 148.532Z" fill="#FDCA96"/>
<path d="M403.247 144.55C402.043 144.633 401.395 144.077 401.395 144.077C402.64 144.591 408.455 141.164 412.026 140.31C415.598 139.456 417.779 144.756 417.779 144.756L419.066 145.878C420.352 147 420.476 148.811 419.447 151.302C418.407 153.792 413.838 157.745 413.838 157.745C413.23 157.786 414.918 155.851 415.474 155.213C416.03 154.564 417.11 152.681 415.906 152.763C414.702 152.846 413.663 155.336 413.663 155.336C412.932 153.566 413.848 149.274 413.848 149.274C413.848 149.274 410.277 150.129 405.378 149.254C400.479 148.379 399.666 145.415 399.666 145.415C401.477 145.291 403.237 144.561 403.237 144.561L403.247 144.55Z" fill="#341D56"/>
<path d="M415.691 160.055C415.691 160.055 416.906 163.77 416.268 164.202C415.619 164.634 412.624 166.199 412.624 166.199C412.624 166.199 414.199 168.268 414.199 169.348C414.199 170.429 402.692 184.364 402.692 184.364C402.692 184.364 399.471 169.276 400.191 168.556C400.902 167.846 402.116 166.559 402.116 166.559C402.116 166.559 401.107 163.554 402.116 162.844C403.125 162.134 406.048 161.413 406.048 161.413L407.406 162.555L414.271 158.912L415.701 160.055H415.691Z" fill="#FDEDF2"/>
<path d="M399.244 196.517C399.244 195.662 398.812 181.079 398.812 181.079C398.812 181.079 397.237 170.498 398.956 166.783C399.645 165.291 400.695 164.251 401.714 163.521C401.457 164.653 402.095 166.567 402.095 166.567C402.095 166.567 400.88 167.853 400.17 168.564C399.46 169.274 402.671 184.372 402.671 184.372L404.318 201.549L403.32 206.613C403.32 206.613 400.026 207.354 397.525 204.081C397.525 204.081 399.244 197.381 399.244 196.517Z" fill="#FAA51A"/>
<path d="M402.445 202.098C402.445 202.098 401.601 184.838 400.922 181.833C400.582 180.32 400.839 178.437 401.189 176.924C401.899 180.722 402.671 184.375 402.671 184.375L404.318 201.553L403.32 206.616C403.32 206.616 401.488 207.028 399.522 205.875C400.397 205.134 401.621 203.879 402.445 202.098Z" fill="#E88324"/>
<path d="M406.034 161.413L407.393 162.555L414.257 158.912L414.494 159.108L409.626 164.634L407.537 163.111L405.128 164.295L403.852 162.061C404.933 161.691 406.044 161.413 406.044 161.413H406.034Z" fill="#D4C4E0"/>
<path d="M405.913 165.582L405.409 164.162L407.539 163.122L409.371 164.45L407.642 166.333L406.52 174.845L403.217 183.716C402.877 184.128 402.682 184.375 402.682 184.375C402.682 184.375 402.589 183.953 402.445 183.253L405.913 165.582Z" fill="#D74172"/>
<path d="M403.209 183.711C407.542 171.484 415.806 160.44 415.806 160.44C416.094 161.408 416.774 163.847 416.259 164.197C415.611 164.629 412.616 166.194 412.616 166.194C412.616 166.194 414.19 168.262 414.19 169.343C414.19 170.28 405.483 180.942 403.219 183.711H403.209Z" fill="#998BC2"/>
<path d="M400.172 168.555C400.882 167.845 402.097 166.558 402.097 166.558C402.097 166.558 401.088 163.553 402.097 162.843C402.488 162.565 403.157 162.287 403.846 162.061C403.795 165.56 402.241 182.274 402.241 182.274C401.387 178.106 399.627 169.111 400.172 168.565V168.555Z" fill="#998BC2"/>
<path d="M402.681 184.37C402.681 184.37 414.188 170.425 414.188 169.354C414.188 168.284 412.613 166.205 412.613 166.205C412.613 166.205 415.618 164.63 416.256 164.208C416.905 163.776 415.68 160.061 415.68 160.061C415.68 160.061 420.394 162.026 423.615 164.64L422.679 183.372L421.341 191.533L423.132 205.232C423.132 205.232 411.604 207.682 405.172 206.179C405.172 206.179 401.529 187.2 402.167 185.698C402.249 185.513 402.414 185.049 402.671 184.38L402.681 184.37Z" fill="#FAA51A"/>
<path d="M413.7 206.467L416.623 200.097C416.623 200.097 420.626 189.661 420.626 187.942C420.626 186.223 418.064 173.039 418.064 173.039L422.757 182.055L422.695 183.372L421.357 191.534L423.632 205.963C423.632 205.963 419.371 206.056 413.71 206.467H413.7Z" fill="#E88324"/>
<path d="M368.31 143.928L391.957 163.989L387.349 169.42L363.703 149.359L368.31 143.928Z" fill="#888189"/>
<path opacity="0.8" d="M323.983 146.968C335.994 157.157 353.994 155.675 364.183 143.664C374.372 131.654 372.89 113.653 360.88 103.464C348.869 93.2749 330.868 94.7569 320.679 106.768C310.49 118.778 311.972 136.779 323.983 146.968Z" fill="#C1B8D8"/>
<path d="M316.318 103.07C328.555 88.6506 350.158 86.8701 364.577 99.1072C378.996 111.344 380.777 132.947 368.54 147.377C356.303 161.796 334.7 163.576 320.281 151.339C305.862 139.102 304.081 117.499 316.318 103.07ZM364.176 143.672C374.365 131.661 372.883 113.66 360.872 103.471C348.861 93.282 330.861 94.764 320.672 106.775C310.483 118.786 311.965 136.786 323.975 146.975C335.986 157.164 353.987 155.682 364.176 143.672Z" fill="#F74780"/>
<path d="M378.744 160.295L381.554 156.981C383.386 154.819 386.998 154.871 389.623 157.094L428.917 190.43C431.542 192.653 432.18 196.214 430.348 198.375L427.538 201.689C425.706 203.85 422.094 203.799 419.469 201.576L380.174 168.24C377.55 166.017 376.912 162.456 378.744 160.295Z" fill="#F74780"/>
<path d="M323.812 127.521C326.261 131.802 331.716 133.284 335.987 130.835C340.269 128.385 341.751 122.931 339.301 118.659C336.852 114.378 331.397 112.896 327.126 115.345C322.844 117.795 321.362 123.25 323.812 127.521Z" fill="#E0D9E7"/>
<path d="M329.97 142.818C330.845 144.341 332.78 144.866 334.303 143.991C335.826 143.116 336.351 141.181 335.476 139.658C334.601 138.135 332.666 137.61 331.143 138.485C329.62 139.36 329.095 141.294 329.97 142.818Z" fill="#E0D9E7"/>
<path d="M412.059 188.362C412.059 188.362 410.607 188.712 410.083 188.197C409.609 187.734 409.764 187.909 409.578 187.693C409.517 187.621 409.372 187.487 409.372 187.487C409.372 187.487 408.086 186.232 407.551 186.458C407.016 186.695 407.036 187.23 407.839 187.744C408.642 188.269 407.983 189.731 406.511 189.268C405.039 188.805 403.197 188.794 403.362 189.432C403.527 190.07 404.834 190.225 404.834 190.225C404.834 190.225 404.834 190.297 404.494 190.235C404.165 190.173 403.455 189.679 403.444 189.937C403.444 190.194 403.29 191.83 405.194 192.685C407.088 193.529 408.405 192.788 408.971 192.561C409.537 192.335 411.647 192.016 412.264 192.294C412.264 192.294 413.17 188.733 412.059 188.352V188.362Z" fill="#FDCA96"/>
<path d="M413.104 192.75L411.622 192.73C411.622 192.73 410.933 190.146 411.406 187.975L412.785 187.995L413.094 192.75H413.104Z" fill="#FDE2D7"/>
<path d="M421.504 163.302C421.504 163.302 428.245 165.206 430.777 179.347C433.309 193.488 429.964 192.531 427.134 193.035C424.303 193.55 412.632 192.932 412.632 192.932L412.519 187.714C412.519 187.714 423.85 187.2 424.602 186.356C425.343 185.502 424.252 182.311 422.564 177.855C420.876 173.398 419.744 164.279 421.504 163.302Z" fill="#FAA51A"/>
<defs>
<linearGradient id="paint0_linear_1951_16500" x1="0" y1="2.99995" x2="592" y2="2.99995" gradientUnits="userSpaceOnUse">
<stop stop-color="#F4EDFF"/>
<stop offset="0.38" stop-color="#8C80BC"/>
<stop offset="0.64" stop-color="#8C80BC"/>
<stop offset="0.99" stop-color="#F4EDFF"/>
</linearGradient>
<linearGradient id="paint1_linear_1951_16500" x1="290.913" y1="71.5859" x2="290.913" y2="165.537" gradientUnits="userSpaceOnUse">
<stop stop-color="#7B4AF7"/>
<stop offset="1" stop-color="#5E41A8" stop-opacity="0"/>
</linearGradient>
<linearGradient id="paint2_linear_1951_16500" x1="255.238" y1="157.93" x2="255.238" y2="170.203" gradientUnits="userSpaceOnUse">
<stop stop-color="#ECE3FF"/>
<stop offset="0.484375" stop-color="#BEB6D1"/>
<stop offset="1" stop-color="#B8B4DA" stop-opacity="0.8"/>
</linearGradient>
<linearGradient id="paint3_linear_1951_16500" x1="265.041" y1="157.93" x2="265.041" y2="170.203" gradientUnits="userSpaceOnUse">
<stop stop-color="#ECE3FF"/>
<stop offset="0.484375" stop-color="#BEB6D1"/>
<stop offset="1" stop-color="#B8B4DA" stop-opacity="0.8"/>
</linearGradient>
<linearGradient id="paint4_linear_1951_16500" x1="276.207" y1="157.367" x2="276.207" y2="170.757" gradientUnits="userSpaceOnUse">
<stop stop-color="#ECE3FF"/>
<stop offset="0.484375" stop-color="#BEB6D1"/>
<stop offset="1" stop-color="#B8B4DA" stop-opacity="0.8"/>
</linearGradient>
<linearGradient id="paint5_linear_1951_16500" x1="289.28" y1="157.93" x2="289.28" y2="170.203" gradientUnits="userSpaceOnUse">
<stop stop-color="#ECE3FF"/>
<stop offset="0.484375" stop-color="#BEB6D1"/>
<stop offset="1" stop-color="#B8B4DA" stop-opacity="0.8"/>
</linearGradient>
<linearGradient id="paint6_linear_1951_16500" x1="300.716" y1="157.93" x2="300.716" y2="170.203" gradientUnits="userSpaceOnUse">
<stop stop-color="#ECE3FF"/>
<stop offset="0.484375" stop-color="#BEB6D1"/>
<stop offset="1" stop-color="#B8B4DA" stop-opacity="0.8"/>
</linearGradient>
<linearGradient id="paint7_linear_1951_16500" x1="311.066" y1="157.93" x2="311.066" y2="170.203" gradientUnits="userSpaceOnUse">
<stop stop-color="#ECE3FF"/>
<stop offset="0.484375" stop-color="#BEB6D1"/>
<stop offset="1" stop-color="#B8B4DA" stop-opacity="0.8"/>
</linearGradient>
<linearGradient id="paint8_linear_1951_16500" x1="324.953" y1="157.93" x2="324.953" y2="170.203" gradientUnits="userSpaceOnUse">
<stop stop-color="#ECE3FF"/>
<stop offset="0.484375" stop-color="#BEB6D1"/>
<stop offset="1" stop-color="#B8B4DA" stop-opacity="0.8"/>
</linearGradient>
</defs>
</svg>
