<svg width="592" height="274" viewBox="0 0 592 274" fill="none" xmlns="http://www.w3.org/2000/svg">
<g opacity="0.7">
<rect width="592" height="6" transform="translate(0 268)" fill="url(#paint0_linear_1951_16502)"/>
</g>
<g opacity="0.53">
<path d="M97 94.0175C97 72.5145 116.821 55.0806 141.272 55.0806H150.507C146.187 51.7922 143.451 46.9384 143.451 41.5191C143.451 31.6148 152.581 23.5853 163.843 23.5853H194.578C191.471 21.2311 189.494 17.7542 189.494 13.8634C189.494 6.7763 196.028 1.03125 204.084 1.03125H281.262C289.32 1.03125 295.854 6.7763 295.854 13.8634C295.854 20.9504 289.32 26.6955 281.262 26.6955H252.364C246.985 29.9245 243.45 35.3581 243.45 41.5191C243.45 46.9384 246.186 51.7922 250.506 55.0806H298.032C322.484 55.0806 342.304 72.5125 342.304 94.0175C342.304 115.52 322.484 132.954 298.032 132.954H360.993C372.255 132.954 381.386 140.984 381.386 150.888C381.386 160.792 372.255 168.822 360.993 168.822H386.647C414.676 168.822 437.942 186.694 442.562 210.183H451.545C469.02 210.183 483.188 222.642 483.188 238.013V240.832C483.188 256.202 469.02 268.662 451.545 268.662H153.761C122.414 268.662 97 246.313 97 218.741C97 191.171 122.414 168.82 153.761 168.82H253.131C241.869 168.82 232.739 160.79 232.739 150.886C232.739 140.982 241.869 132.952 253.131 132.952H141.272C116.821 132.952 97 115.52 97 94.0154V94.0175Z" fill="#F4EBFF"/>
<path d="M345.895 27.7254C354.251 27.7254 361.025 21.5189 361.025 13.8627C361.025 6.20654 354.251 0 345.895 0C337.539 0 330.765 6.20654 330.765 13.8627C330.765 21.5189 337.539 27.7254 345.895 27.7254Z" fill="#F4EBFF"/>
</g>
<path d="M261.117 205.477C261.117 205.477 265.887 218.526 253.631 251.754H333.31C333.31 251.754 319.013 238.705 322.418 205.477H261.129H261.117Z" fill="#B8B4DA"/>
<path d="M321.962 218.483C321.824 214.541 321.939 210.216 322.421 205.477H261.131C261.131 205.477 262.564 209.43 261.83 218.483H321.962Z" fill="#8C80BC"/>
<path d="M152.902 39.9219H428.602C435.928 39.9219 441.867 45.4369 441.867 52.2166V196.257C441.867 204.024 435.057 210.337 426.676 210.337H154.817C146.436 210.337 139.626 204.024 139.626 196.257V52.2166C139.626 45.4263 145.576 39.9219 152.891 39.9219H152.902Z" fill="#B8B4DA"/>
<path d="M141.597 202.074V46.8528C141.597 43.7669 144.477 41.2753 148.035 41.2753H432.883C433.99 41.2753 435.018 41.5359 435.933 41.9633C434.848 40.2223 432.737 39.0234 430.297 39.0234H145.437C141.88 39.0234 139 41.5255 139 44.6009V199.812C139 202.157 140.457 204.201 142.625 205.306C141.97 204.357 141.597 203.242 141.597 202.053V202.074Z" fill="#8C80BC"/>
<path d="M428.222 49.8623H153.278C152.885 49.8623 152.567 50.1573 152.567 50.5211V187.814C152.567 188.177 152.885 188.472 153.278 188.472H428.222C428.614 188.472 428.932 188.177 428.932 187.814V50.5211C428.932 50.1573 428.614 49.8623 428.222 49.8623Z" fill="#433D66"/>
<path d="M428.138 59.665H153.148C152.768 59.665 152.46 59.9505 152.46 60.3026V187.829C152.46 188.182 152.768 188.467 153.148 188.467H428.138C428.517 188.467 428.825 188.182 428.825 187.829V60.3026C428.825 59.9505 428.517 59.665 428.138 59.665Z" fill="#4B4578"/>
<path d="M213.111 250.208L206.645 270.632H371.437L364.971 250.208H213.111Z" fill="#6C6B95"/>
<path d="M299.25 199.043C299.25 202.04 296.67 204.463 293.483 204.463C290.296 204.463 287.716 202.04 287.716 199.043C287.716 196.047 290.296 193.624 293.483 193.624C296.67 193.624 299.25 196.047 299.25 199.043Z" fill="#8C80BC"/>
<path d="M337.451 87.3228C316.014 86.8224 292.376 74.0068 292.376 74.0068C292.376 74.0068 268.885 87.0547 247.448 87.7875C247.448 87.7875 239.287 153.402 292.926 176.013C346.308 152.866 337.451 87.3407 337.451 87.3407V87.3228Z" fill="#8577B7"/>
<path d="M337.45 86.7083C316.013 86.2257 292.375 74 292.375 74C292.375 74 268.866 86.458 247.447 87.1551C247.447 87.1551 239.268 149.767 292.889 171.323C346.29 149.231 337.432 86.7083 337.432 86.7083H337.45Z" fill="#9C8AC1"/>
<path d="M333.305 90.0879C313.848 89.6589 292.411 78.5771 292.411 78.5771C292.411 78.5771 271.083 89.8734 251.645 90.499C251.645 90.499 244.218 147.213 292.887 166.731C341.337 146.712 333.305 90.0879 333.305 90.0879Z" fill="url(#paint1_linear_1951_16502)"/>
<path opacity="0.54" d="M330.68 92.1965C312.488 91.7854 292.408 81.4365 292.408 81.4365C292.408 81.4365 272.456 91.9999 254.264 92.5898C254.264 92.5898 247.314 145.657 292.848 163.924C338.18 145.192 330.68 92.1965 330.68 92.1965Z" fill="#9C8F97"/>
<path d="M328.685 93.19C311.447 92.7967 292.43 82.7695 292.43 82.7695C292.43 82.7695 273.524 92.9755 256.286 93.5474C256.286 93.5474 249.721 144.863 292.852 162.54C335.8 144.434 328.685 93.1721 328.685 93.1721V93.19Z" fill="white"/>
<path d="M325.748 94.9443C309.904 94.5689 292.428 85.1494 292.428 85.1494C292.428 85.1494 275.062 94.7477 259.218 95.2839C259.218 95.2839 253.184 143.561 292.831 160.184C332.295 143.15 325.748 94.9443 325.748 94.9443Z" fill="#8A73B4"/>
<path d="M292.446 84.8994L292.85 159.934C332.313 142.9 325.767 94.6943 325.767 94.6943C309.923 94.3189 292.446 84.8994 292.446 84.8994Z" fill="#593F99"/>
<g clip-path="url(#clip0_1951_16502)">
<path d="M292.719 105C287.683 104.97 283.557 109.02 283.522 114.026L283.483 119.408H286.899L286.937 114.046C286.96 110.885 289.543 108.328 292.696 108.347C295.848 108.365 298.394 110.952 298.372 114.113L298.335 119.408H301.75L301.787 114.133C301.822 109.126 297.755 105.03 292.719 105Z" fill="#C7CCD1"/>
<path d="M292.693 107.698C289.216 107.678 286.368 110.473 286.343 113.93L286.3 119.409H286.899L286.938 114.047C286.961 110.885 289.543 108.329 292.696 108.347C295.848 108.366 298.394 110.953 298.372 114.114L298.335 119.409H298.912L298.955 114.005C298.98 110.548 296.17 107.72 292.693 107.698Z" fill="#889FB7"/>
<path d="M303.054 119.374L301.748 119.369V119.302H298.333V119.356L286.897 119.313V119.303H282.036C280.988 119.376 280.161 120.086 280.154 120.956L280 137.383C279.991 138.303 280.904 139.053 282.039 139.057L302.871 139.136C304.005 139.14 304.932 138.398 304.939 137.478L305.093 121.049C305.102 120.129 304.189 119.379 303.054 119.375V119.374Z" fill="#FEBF4B"/>
<path d="M294.552 128.046C294.563 126.798 293.631 125.782 292.469 125.777C291.306 125.773 290.354 126.781 290.342 128.03C290.335 128.805 290.691 129.488 291.241 129.898L290.576 133.013L294.221 133.026L293.617 129.905C294.174 129.5 294.544 128.818 294.552 128.043V128.046Z" fill="#133160"/>
<path opacity="0.31" d="M304.939 137.476L305.093 121.047C305.101 120.127 304.188 119.378 303.054 119.373L302.066 119.369C302.224 122.068 301.953 126.817 299.06 131.712C295.395 137.914 284.137 138.389 280.393 138.372C280.763 138.784 281.361 139.054 282.038 139.057L302.87 139.136C304.004 139.14 304.932 138.398 304.939 137.478V137.476Z" fill="#DD7814"/>
<path d="M284.481 124.954C284.481 126.151 284.053 127.122 283.524 127.122C282.996 127.122 282.568 126.151 282.568 124.954C282.568 123.757 282.996 122.786 283.524 122.786C284.053 122.786 284.481 123.757 284.481 124.954Z" fill="white"/>
</g>
<defs>
<linearGradient id="paint0_linear_1951_16502" x1="0" y1="2.99995" x2="592" y2="2.99995" gradientUnits="userSpaceOnUse">
<stop stop-color="#F4EDFF"/>
<stop offset="0.38" stop-color="#8C80BC"/>
<stop offset="0.64" stop-color="#8C80BC"/>
<stop offset="0.99" stop-color="#F4EDFF"/>
</linearGradient>
<linearGradient id="paint1_linear_1951_16502" x1="290.546" y1="78.476" x2="290.981" y2="166.629" gradientUnits="userSpaceOnUse">
<stop stop-color="#F4E1DC"/>
<stop offset="0.15" stop-color="#F0DDD8"/>
<stop offset="0.29" stop-color="#E5D3CE"/>
<stop offset="0.42" stop-color="#D2C2BE"/>
<stop offset="0.55" stop-color="#B8ABA7"/>
<stop offset="0.67" stop-color="#978C89"/>
<stop offset="0.8" stop-color="#6E6665"/>
<stop offset="0.92" stop-color="#3E3B3A"/>
<stop offset="1" stop-color="#1A1A1A"/>
</linearGradient>
<clipPath id="clip0_1951_16502">
<rect width="25.0929" height="34.1358" fill="white" transform="translate(280 105)"/>
</clipPath>
</defs>
</svg>
