<svg xmlns="http://www.w3.org/2000/svg" viewBox="0 0 25.03 25.03"><defs><style>.cls-1{fill:#fff;}.cls-2{fill:#7F56D9;}</style></defs><g id="Слой_2" data-name="Слой 2"><g id="Слой_1-2" data-name="Слой 1"><rect class="cls-1" width="25.03" height="25.03" rx="3.74"/><path class="cls-2" d="M20.68,7.81l-7.94-4a.51.51,0,0,0-.45,0L9.47,5.24l8,4v4.28a.26.26,0,0,1-.13.22l-1.44.78a.25.25,0,0,1-.36-.21v-4l-8-4.09-3.2,1.6a.5.5,0,0,0-.27.45V17a.5.5,0,0,0,.28.45l7.94,3.8a.49.49,0,0,0,.44,0l7.94-3.8A.49.49,0,0,0,21,17V8.26A.51.51,0,0,0,20.68,7.81Z"/></g></g></svg>